{"asset":{"generator":"Khronos glTF Blender I/O v5.2.40","version":"2.0"},"scene":0,"scenes":[{"name":"Scene","nodes":[3,4,8,9]}],"nodes":[{"name":"hand","rotation":[0.11555008590221405,7.705050819595272e-09,0.22717885673046112,0.966973602771759],"scale":[1,0.9999999403953552,1],"translation":[0,0.7345828413963318,-3.725290298461914e-09]},{"children":[0],"name":"forearm","rotation":[0.9651731252670288,0.09194447100162506,-0.24122604727745056,0.04239274561405182],"scale":[0.9999999403953552,0.9999998807907104,0.9999998807907104],"translation":[0.08242668956518173,0.4279574155807495,-0.14554433524608612]},{"name":"upper_arm","rotation":[0.05828512832522392,0.005885262507945299,0.13561348617076874,0.9890284538269043],"scale":[1,0.9999999403953552,1],"translation":[0.09581898152828217,0.43364304304122925,-0.14928163588047028]},{"children":[1,2],"name":"Armature","translation":[-0.06230485811829567,-0.1709934026002884,0.10784831643104553]},{"mesh":0,"name":"bicep_R","rotation":[0.00889816414564848,-0.000890368886757642,0.12725049257278442,0.9918304085731506],"scale":[0.11304900050163269,0.23694947361946106,0.12016672641038895],"translation":[-0.005316663533449173,0.4326338469982147,0.013044223189353943]},{"mesh":1,"name":"Arm_L"},{"children":[5],"name":"g"},{"children":[6],"name":"Collada visual scene group","rotation":[0.70710688829422,0,0,0.7071066498756409]},{"children":[7],"name":"Sketchfab_model","rotation":[-0.70710688829422,0,0,0.7071066498756409]},{"mesh":2,"name":"tricep_R","rotation":[-0.9918304085731506,-0.12725050747394562,-0.0008903690031729639,0.00889816414564848],"scale":[-0.11695100367069244,-0.19694946706295013,-0.04016700014472008],"translation":[0.0011878088116645813,0.5000801682472229,-0.0564265102148056]}],"materials":[{"doubleSided":true,"name":"Biceps_MAT","pbrMetallicRoughness":{"baseColorFactor":[0.7777227759361267,0.7556535601615906,0.8001648187637329,1],"metallicFactor":0,"roughnessFactor":0.5}},{"doubleSided":true,"name":"lambert2SG","pbrMetallicRoughness":{"baseColorTexture":{"index":0},"metallicRoughnessTexture":{"index":1}},"occlusionTexture":{"index":1},"normalTexture":{"index":2}},{"doubleSided":true,"name":"Triceps_MAT"}],"meshes":[{"name":"Sphere","primitives":[{"attributes":{"POSITION":0,"NORMAL":1,"TEXCOORD_0":2},"indices":3,"material":0}]},{"name":"defaultMaterial","primitives":[{"attributes":{"POSITION":4,"NORMAL":5,"TEXCOORD_0":6},"indices":7,"material":1}]},{"name":"Sphere.001","primitives":[{"attributes":{"POSITION":8,"NORMAL":9,"TEXCOORD_0":10},"indices":3,"material":2}]}],"skins":[{"inverseBindMatrices":11,"joints":[1,0,2],"name":"Armature"}],"accessors":[{"bufferView":0,"componentType":5126,"count":1984,"max":[0.9999997019767761,1,0.9999993443489075],"min":[-0.9999990463256836,-1,-1],"type":"VEC3"},{"bufferView":1,"componentType":5126,"count":1984,"type":"VEC3"},{"bufferView":2,"componentType":5126,"count":1984,"type":"VEC2"},{"bufferView":3,"componentType":5123,"count":2880,"type":"SCALAR"},{"bufferView":4,"componentType":5126,"count":1211,"max":[0.2220270037651062,1,0.2198610007762909],"min":[-0.2220270037651062,-1,-0.2198610007762909],"type":"VEC3"},{"bufferView":5,"componentType":5126,"count":1211,"type":"VEC3"},{"bufferView":6,"componentType":5126,"count":1211,"type":"VEC2"},{"bufferView":7,"componentType":5123,"count":6405,"type":"SCALAR"},{"bufferView":8,"componentType":5126,"count":1984,"max":[0.9999997019767761,1,0.9999993443489075],"min":[-0.9999990463256836,-1,-1],"type":"VEC3"},{"bufferView":9,"componentType":5126,"count":1984,"type":"VEC3"},{"bufferView":10,"componentType":5126,"count":1984,"type":"VEC2"},{"bufferView":11,"componentType":5126,"count":3,"type":"MAT4"}],"bufferViews":[{"buffer":0,"byteLength":23808,"byteOffset":0,"target":34962},{"buffer":0,"byteLength":23808,"byteOffset":23808,"target":34962},{"buffer":0,"byteLength":15872,"byteOffset":47616,"target":34962},{"buffer":0,"byteLength":5760,"byteOffset":63488,"target":34963},{"buffer":0,"byteLength":14532,"byteOffset":69248,"target":34962},{"buffer":0,"byteLength":14532,"byteOffset":83780,"target":34962},{"buffer":0,"byteLength":9688,"byteOffset":98312,"target":34962},{"buffer":0,"byteLength":12810,"byteOffset":108000,"target":34963},{"buffer":0,"byteLength":23808,"byteOffset":120812,"target":34962},{"buffer":0,"byteLength":23808,"byteOffset":144620,"target":34962},{"buffer":0,"byteLength":15872,"byteOffset":168428,"target":34962},{"buffer":0,"byteLength":192,"byteOffset":184300}],"buffers":[{"byteLength":184492,"uri":"Arm_R.bin"}],"images":[{"uri":"arm_skin_color.jpg"},{"uri":"arm_skin_orm.png"},{"uri":"arm_skin_normal.png"}],"samplers":[{"magFilter":9729,"minFilter":9987,"wrapS":10497,"wrapT":10497}],"textures":[{"sampler":0,"source":0},{"sampler":0,"source":1},{"sampler":0,"source":2}]}